<svg width="24" height="24" viewBox="0 0 24 24" fill="none" xmlns="http://www.w3.org/2000/svg">
  <path d="M19.9687 3.0468C19.9031 3.07493 19.2797 3.67024 18.5765 4.36868L17.3062 5.63899L16.7015 5.40462C15.7265 5.01556 14.7984 4.7718 13.7109 4.60774C12.8484 4.48118 11.0344 4.49524 10.1297 4.63587C7.74373 5.00149 5.63436 5.95306 3.63748 7.56087C3.00467 8.06712 1.80467 9.27649 1.29373 9.91399C0.740607 10.6124 0.0562321 11.639 0.0187321 11.8359C-0.0328304 12.1171 0.0374821 12.3046 0.421857 12.8812C1.54686 14.5827 3.15936 16.2046 4.78123 17.2734C5.05311 17.4515 5.28279 17.6015 5.29217 17.6109C5.30623 17.6202 4.80467 18.1406 4.18592 18.764C3.21561 19.7343 3.05154 19.9218 3.02342 20.0765C2.97186 20.3577 3.03748 20.5781 3.22967 20.7702C3.42186 20.9624 3.64217 21.0281 3.92342 20.9765C4.08279 20.9484 4.98748 20.0577 12.5062 12.5484C18.6797 6.37493 20.9203 4.10618 20.9578 3.98899C21.0609 3.67493 20.9484 3.33743 20.6625 3.12649C20.5172 3.01868 20.1422 2.97649 19.9687 3.0468ZM13.5937 6.11712C14.4 6.23899 15.2953 6.47337 16.0031 6.74993L16.1437 6.80149L15.375 7.57024L14.6062 8.33899L14.4797 8.24993C14.2359 8.07181 13.4719 7.7343 13.1015 7.63118C12.6047 7.49993 11.489 7.48587 10.9969 7.60774C10.139 7.82337 9.45936 8.20774 8.83123 8.83118C8.20779 9.4593 7.82342 10.1437 7.60779 10.9968C7.48123 11.5031 7.49529 12.5624 7.63123 13.0781C7.73904 13.4671 8.04842 14.1749 8.24529 14.4609L8.33904 14.6062L7.38748 15.5577L6.43592 16.5093L5.99061 16.2327C4.43436 15.2531 2.85467 13.7624 1.87498 12.3468L1.63592 11.9999L1.87029 11.6577C2.69998 10.4577 4.14373 9.01399 5.36717 8.15149C7.01717 6.98899 8.96717 6.25305 10.9031 6.05149C11.4844 5.99055 13.0031 6.02806 13.5937 6.11712ZM12.6656 9.08899C12.9562 9.16399 13.5 9.38899 13.5 9.43587C13.5 9.44055 12.5859 10.3593 11.4656 11.4796L9.43123 13.514L9.30467 13.2702C9.13592 12.9281 8.99998 12.3749 8.99998 12.0046C9.00467 10.0874 10.8469 8.62493 12.6656 9.08899Z" fill="#A9ADB2" />
  <path d="M19.3922 7.77188C19.1156 8.04844 18.8906 8.29688 18.8953 8.32031C18.8953 8.34844 19.0781 8.50781 19.3031 8.68125C20.264 9.41719 21.5297 10.7672 22.214 11.775L22.364 12L22.1718 12.2812C21.3656 13.4719 19.964 14.8922 18.7265 15.7781C16.6078 17.2969 14.1328 18.0703 11.6718 17.9812C10.9031 17.9578 10.664 17.9297 9.87654 17.7844L9.45935 17.7047L8.85466 18.3094C8.41872 18.7453 8.26872 18.9187 8.3156 18.9469C8.44685 19.0219 9.55779 19.2703 10.1953 19.3687C11.0718 19.5047 12.8578 19.5141 13.7109 19.3922C16.7343 18.9469 19.2562 17.6437 21.5625 15.3328C22.3875 14.5031 22.9265 13.8516 23.5312 12.9469C24.1359 12.0469 24.1359 11.9672 23.5875 11.1281C23.0625 10.3313 22.3453 9.45469 21.5859 8.69063C20.9437 8.04375 20.0484 7.26562 19.95 7.26562C19.9218 7.26562 19.6687 7.49063 19.3922 7.77188Z" fill="#A9ADB2" />
  <path d="M15.6375 11.5265L14.9906 12.1734L14.9297 12.5437C14.8547 12.975 14.5875 13.5468 14.3015 13.889C13.8609 14.4187 13.1859 14.8172 12.5437 14.9297L12.1734 14.9906L11.5125 15.6515C11.1515 16.0125 10.8703 16.3218 10.8844 16.3359C10.9406 16.3922 11.6578 16.4953 12.0047 16.5C13.1906 16.5047 14.2828 16.0406 15.164 15.164C16.0687 14.2593 16.4672 13.3078 16.4719 12.0468C16.4765 11.4609 16.3969 10.875 16.3219 10.875C16.3031 10.875 15.9984 11.1656 15.6375 11.5265Z" fill="#A9ADB2" />
</svg>