<svg width="24" height="24" viewBox="0 0 24 24" fill="none" xmlns="http://www.w3.org/2000/svg">
<path d="M11.984 5.25C8.33061 5.25 4.58295 7.36453 1.63264 11.5936C1.54843 11.7156 1.50228 11.8599 1.50003 12.0082C1.49777 12.1564 1.53952 12.302 1.61998 12.4266C3.88686 15.975 7.58436 18.75 11.984 18.75C16.3359 18.75 20.1094 15.9666 22.3805 12.4102C22.459 12.2881 22.5008 12.1459 22.5008 12.0007C22.5008 11.8555 22.459 11.7134 22.3805 11.5912C20.1042 8.07562 16.3031 5.25 11.984 5.25Z" stroke="#A9ADB2" stroke-width="1.5" stroke-linecap="round" stroke-linejoin="round"/>
<path d="M12 15.75C14.0711 15.75 15.75 14.0711 15.75 12C15.75 9.92893 14.0711 8.25 12 8.25C9.92893 8.25 8.25 9.92893 8.25 12C8.25 14.0711 9.92893 15.75 12 15.75Z" stroke="#A9ADB2" stroke-width="1.5" stroke-miterlimit="10"/>
</svg>
